# xmcd
#
# Track frame offsets: 
#        150
#        17013
#        30494
#        45047
#        66530
#        85012
#        96172
#        113706
#        127458
#        146922
#        161320
#        177148
#        191826
#        220869
#        240272
#
# Disc length: 3428 seconds
#
# Revision: 0
# Processed by: cddbd v1.5.2PL0 Copyright (c) Steve Scherf et al.
# Submitted via: ExactAudioCopy v1.3
#
DISCID=c70d620f
DTITLE=Various Artist - Texas Blues Radio - Volume 4
DYEAR=2005
DGENRE=Blues
TTITLE0=Aaron Burton - Blind Lemon
TTITLE1=Chris Ruest - Too Many Problems
TTITLE2=Cricket Taylor - Look What You Did
TTITLE3=Paul Byrd - Blues for Pearl
TTITLE4=Johnny Mack - My Baby's Got It
TTITLE5=Stompin Bill Johnston - Kickin It
TTITLE6=D.C. and the Capitols - All Night Long
TTITLE7=Joel Foy - Tribute to Sylvester Weaver
TTITLE8=Hash Brown and the Browntones - Blues for April Green
TTITLE9=Miss Marcy - Sugar Daddy
TTITLE10=Trainreck - Raggedy Man
TTITLE11=Paul Harrington - Two Harmonicas in a Stripper's Bra
TTITLE12=Cheryl Arena - Blues Got Me
TTITLE13=Edwin Holt - Red Clay Back Road Mama
TTITLE14=Steve Hill Trio - Trouble Coming Down
EXTD=
EXTT0=
EXTT1=
EXTT2=
EXTT3=
EXTT4=
EXTT5=
EXTT6=
EXTT7=
EXTT8=
EXTT9=
EXTT10=
EXTT11=
EXTT12=
EXTT13=
EXTT14=
PLAYORDER=
